# xmcd
#
# Track frame offsets:
#	150
#	10988
#	20540
#	34994
#	44817
#	55857
#	68928
#	79783
#	92663
#	102297
#	116074
#	129752
#
# Disc length: 1868 seconds
#
# Revision: 1
# Processed by: cddbd v1.5.2PL0 Copyright (c) Steve Scherf et al.
# Submitted via: audiograbber 1.83.01
#
DISCID=9e074a0c
DTITLE=Tony Bennett - Let There Be Love
DYEAR=1900
DGENRE=
TTITLE0=Lullaby Of Broadway
TTITLE1=Let There Be Love
TTITLE2=Love For Sale
TTITLE3=Crazy Rhythm
TTITLE4=The Best Of My Heart
TTITLE5=Blues In The Night
TTITLE6=Lazy Afternoon
TTITLE7=Let's Face The Music And Dance
TTITLE8=Just One Of Those Things
TTITLE9=Stranger In Paradise
TTITLE10=Bags To Riches
TTITLE11=Close To Your Eyes
EXTD=
EXTT0=
EXTT1=
EXTT2=
EXTT3=
EXTT4=
EXTT5=
EXTT6=
EXTT7=
EXTT8=
EXTT9=
EXTT10=
EXTT11=
PLAYORDER=
